HIERARCHY
ROOT Hips
{
	OFFSET 0.000000 0.000000 0.000000
	CHANNELS 6 Xposition Yposition Zposition Xrotation Yrotation Zrotation
	JOINT LeftUpLeg_virtual
	{
		OFFSET 0.000000 0.000000 0.000000
		CHANNELS 3 Xrotation Yrotation Zrotation
		JOINT LeftUpLeg
		{
			OFFSET 11.394100 -6.187798 -0.413800
			CHANNELS 3 Xrotation Yrotation Zrotation
			JOINT LeftLeg
			{
				OFFSET 0.430247 -32.302673 3.732800
				CHANNELS 3 Xrotation Yrotation Zrotation
				JOINT LeftFoot
				{
					OFFSET -0.430247 -48.264931 -6.423300
					CHANNELS 3 Xrotation Yrotation Zrotation
					JOINT LeftToeBase
					{
						OFFSET 4.230900 -16.068199 23.438400
						CHANNELS 3 Xrotation Yrotation Zrotation
						JOINT LeftToe_End
						{
							OFFSET 4.510700 0.695400 19.974600
							CHANNELS 3 Xrotation Yrotation Zrotation
							End Site
							{
								OFFSET 0 0 0
							}
						}
					}
				}
			}
		}
	}
	JOINT RightUpLeg_virtual
	{
		OFFSET 0.000000 0.000000 0.000000
		CHANNELS 3 Xrotation Yrotation Zrotation
		JOINT RightUpLeg
		{
			OFFSET -11.333700 -6.187798 -0.413800
			CHANNELS 3 Xrotation Yrotation Zrotation
			JOINT RightLeg
			{
				OFFSET -0.430392 -32.302628 3.733000
				CHANNELS 3 Xrotation Yrotation Zrotation
				JOINT RightFoot
				{
					OFFSET 0.430392 -48.264973 -6.423500
					CHANNELS 3 Xrotation Yrotation Zrotation
					JOINT RightToeBase
					{
						OFFSET -4.230900 -16.068199 23.438400
						CHANNELS 3 Xrotation Yrotation Zrotation
						JOINT RightToe_End
						{
							OFFSET -4.510700 0.695400 19.974600
							CHANNELS 3 Xrotation Yrotation Zrotation
							End Site
							{
								OFFSET 0 0 0
							}
						}
					}
				}
			}
		}
	}
	JOINT Spine_virtual
	{
		OFFSET 0.000000 0.000000 0.000000
		CHANNELS 3 Xrotation Yrotation Zrotation
		JOINT Spine
		{
			OFFSET -0.002400 12.777504 0.315300
			CHANNELS 3 Xrotation Yrotation Zrotation
			JOINT Spine1
			{
				OFFSET -0.002067 5.816869 0.032633
				CHANNELS 3 Xrotation Yrotation Zrotation
				JOINT Spine1_split
				{
					OFFSET -0.002067 5.816869 0.032633
					CHANNELS 3 Xrotation Yrotation Zrotation
					JOINT Spine2
					{
						OFFSET -0.002067 5.816869 0.032633
						CHANNELS 3 Xrotation Yrotation Zrotation
						JOINT Neck_virtual
						{
							OFFSET 0.000000 0.000000 0.000000
							CHANNELS 3 Xrotation Yrotation Zrotation
							JOINT Neck
							{
								OFFSET -0.003700 21.199493 -0.826900
								CHANNELS 3 Xrotation Yrotation Zrotation
								JOINT Head
								{
									OFFSET 0.000000 20.442200 4.834800
									CHANNELS 3 Xrotation Yrotation Zrotation
									JOINT HeadTop_End
									{
										OFFSET 0.000000 34.668396 4.968400
										CHANNELS 3 Xrotation Yrotation Zrotation
										End Site
										{
											OFFSET 0 0 0
										}
									}
								}
							}
						}
						JOINT LeftShoulder_virtual
						{
							OFFSET 0.000000 0.000000 0.000000
							CHANNELS 3 Xrotation Yrotation Zrotation
							JOINT LeftShoulder
							{
								OFFSET 3.288150 8.794197 -1.372250
								CHANNELS 3 Xrotation Yrotation Zrotation
								JOINT LeftShoulder_split
								{
									OFFSET 3.288150 8.794197 -1.372250
									CHANNELS 3 Xrotation Yrotation Zrotation
									JOINT LeftArm
									{
										OFFSET 11.953299 -2.279007 -0.146200
										CHANNELS 3 Xrotation Yrotation Zrotation
										JOINT LeftForeArm
										{
											OFFSET 18.448900 0.000000 0.000000
											CHANNELS 3 Xrotation Yrotation Zrotation
											JOINT LeftHand
											{
												OFFSET 29.527798 0.000000 0.000000
												CHANNELS 3 Xrotation Yrotation Zrotation
												End Site
												{
													OFFSET 0 0 0
												}
											}
										}
									}
								}
							}
						}
						JOINT RightShoulder_virtual
						{
							OFFSET 0.000000 0.000000 0.000000
							CHANNELS 3 Xrotation Yrotation Zrotation
							JOINT RightShoulder
							{
								OFFSET -3.249400 8.794197 -1.372250
								CHANNELS 3 Xrotation Yrotation Zrotation
								JOINT RightShoulder_split
								{
									OFFSET -3.249400 8.794197 -1.372250
									CHANNELS 3 Xrotation Yrotation Zrotation
									JOINT RightArm
									{
										OFFSET -11.953299 -2.279007 -0.146200
										CHANNELS 3 Xrotation Yrotation Zrotation
										JOINT RightForeArm
										{
											OFFSET -18.448900 0.000000 0.000000
											CHANNELS 3 Xrotation Yrotation Zrotation
											JOINT RightHand
											{
												OFFSET -29.527802 0.000000 0.000000
												CHANNELS 3 Xrotation Yrotation Zrotation
												End Site
												{
													OFFSET 0 0 0
												}
											}
										}
									}
								}
							}
						}
					}
				}
			}
		}
	}
}
MOTION
Frames: 7
Frame Time: 0.03333333
6.552142 101.520248 -4.791626 0.000000 0.000000 0.000000 -0.961075 -21.611581 -1.528542 -9.185658 5.666577 0.581326 17.261980 11.395495 3.056037 -7.593429 18.474190 -2.899521 -2.331203 0.294672 -2.338571 0.000000 0.000000 0.000000 -0.082705 -21.793141 -1.523299 -22.869599 -8.761929 -10.291314 16.517655 1.340657 -0.980677 1.331526 -2.983292 5.829344 -8.575067 0.522704 0.384130 0.000000 0.000000 0.000000 -0.227354 -22.367773 -2.245805 3.894310 1.302650 -1.525627 0.399547 -0.029213 0.131093 1.109128 0.365806 0.217909 0.000000 0.000000 0.000000 1.240647 0.423946 -0.295544 1.074991 -1.035952 2.319383 13.131295 10.245665 5.646010 0.000000 0.000000 0.000000 0.792001 0.440198 -0.166288 2.236463 -2.906400 -11.600789 -0.459007 -1.108100 -1.961990 -6.695611 -19.050323 -55.841332 0.488821 -14.136121 0.368454 0.000000 0.000000 0.000000 0.878912 0.442506 -0.125351 2.343087 -2.518525 16.606785 -0.733268 2.922133 -3.093039 7.172009 2.348265 65.645044 1.853591 20.024803 1.512435 0.000000 0.000000 0.000000 
6.904590 101.535217 -4.570641 0.000000 0.000000 0.000000 -0.892573 -22.425577 -1.701292 -9.095961 5.742726 0.368798 17.202590 11.448612 3.001451 -7.812449 19.232778 -2.788428 -2.391620 0.320458 -2.245151 0.000000 0.000000 0.000000 -0.058292 -22.512683 -1.699558 -23.131846 -8.782133 -10.252741 16.284096 1.442548 -1.040634 1.269835 -2.869951 5.679922 -8.344380 0.488702 0.414165 0.000000 0.000000 0.000000 -0.188331 -23.167908 -2.430513 3.648460 0.861767 -1.668116 0.348410 -0.116486 0.110267 1.175441 0.381856 0.216655 0.000000 0.000000 0.000000 1.214452 0.328793 -0.316506 1.054836 -1.123725 2.409587 13.390113 11.193881 5.953697 0.000000 0.000000 0.000000 0.745051 0.360143 -0.187592 2.187822 -3.148264 -11.497562 -0.558239 -1.049966 -1.963344 -7.005345 -20.691257 -56.141297 0.490038 -14.652716 0.389890 0.000000 0.000000 0.000000 0.846006 0.358092 -0.168144 2.403995 -3.070481 16.960123 -0.793397 2.827906 -3.162815 6.747497 2.966800 66.193576 1.880641 20.525277 1.513795 0.000000 0.000000 0.000000 
7.237900 101.533401 -4.326443 0.000000 0.000000 0.000000 -0.812712 -23.224540 -1.868208 -9.065399 5.849650 0.211187 17.172781 11.498243 2.971096 -8.004530 19.954235 -2.656057 -2.462349 0.345663 -2.149307 0.000000 0.000000 0.000000 -0.015567 -23.214234 -1.875767 -23.374210 -8.797707 -10.193171 15.998712 1.470801 -1.113188 1.300732 -2.762331 5.498622 -8.042472 0.463106 0.434156 0.000000 0.000000 0.000000 -0.126954 -23.929259 -2.604808 3.428213 0.391283 -1.845238 0.296500 -0.197754 0.073213 1.235138 0.404300 0.217375 0.000000 0.000000 0.000000 1.187617 0.235909 -0.348350 1.047038 -1.206486 2.495621 13.647478 12.069677 6.342958 0.000000 0.000000 0.000000 0.701890 0.286962 -0.218819 2.126503 -3.442082 -11.330855 -0.650964 -0.990946 -1.951378 -7.178260 -22.424471 -56.454095 0.513931 -15.536273 0.423896 0.000000 0.000000 0.000000 0.824296 0.276868 -0.228188 2.468191 -3.653923 17.356703 -0.862569 2.699089 -3.196568 6.191704 3.695957 66.665283 1.907931 21.039069 1.515447 0.000000 0.000000 0.000000 
7.542751 101.529060 -4.076916 0.000000 0.000000 0.000000 -0.697208 -23.961748 -2.015271 -9.105496 5.978304 0.098197 17.162283 11.542403 2.972011 -8.135049 20.615780 -2.504257 -2.554416 0.370142 -2.060517 0.000000 0.000000 0.000000 0.077185 -23.872918 -2.033893 -23.575699 -8.780816 -10.127583 15.631648 1.442658 -1.202205 1.515545 -2.648986 5.395432 -7.852838 0.444954 0.433802 0.000000 0.000000 0.000000 -0.016543 -24.616686 -2.750860 3.220272 -0.108012 -2.078619 0.238684 -0.276539 0.015226 1.250205 0.423070 0.235465 0.000000 0.000000 0.000000 1.151777 0.143322 -0.396596 1.048817 -1.286375 2.601848 13.918664 12.858396 6.811871 0.000000 0.000000 0.000000 0.658822 0.219023 -0.264205 2.052925 -3.775835 -11.085560 -0.727846 -0.926293 -1.921169 -7.192419 -24.216678 -56.806181 0.570367 -16.845736 0.469312 0.000000 0.000000 0.000000 0.808154 0.196794 -0.310261 2.537226 -4.272064 17.775796 -0.930332 2.536086 -3.200259 5.575013 4.496748 67.047043 1.931383 21.538998 1.527497 0.000000 0.000000 0.000000 
7.813118 101.536392 -3.821014 0.000000 0.000000 0.000000 -0.527236 -24.600000 -2.142234 -9.247159 6.122694 0.035570 17.162723 11.572537 3.004972 -8.184983 21.184896 -2.360443 -2.639178 0.391926 -1.990800 0.000000 0.000000 0.000000 0.241103 -24.477506 -2.167327 -23.705430 -8.713809 -10.039167 15.132153 1.357078 -1.308870 1.899240 -2.533996 5.415573 -7.813199 0.428580 0.421327 0.000000 0.000000 0.000000 0.157577 -25.205857 -2.869717 3.013553 -0.629931 -2.384639 0.172503 -0.359016 -0.060433 1.259558 0.445385 0.281342 0.000000 0.000000 0.000000 1.104554 0.048552 -0.461704 1.041225 -1.369065 2.750567 14.207278 13.542997 7.360577 0.000000 0.000000 0.000000 0.615719 0.150419 -0.323026 1.970075 -4.138890 -10.756780 -0.790743 -0.843979 -1.899472 -7.077935 -26.003712 -57.214767 0.650647 -18.519209 0.512638 0.000000 0.000000 0.000000 0.791137 0.112879 -0.410842 2.611828 -4.916758 18.193641 -0.969801 2.347217 -3.181419 4.984398 5.316243 67.356962 1.953075 22.046083 1.551842 0.000000 0.000000 0.000000 
8.049985 101.559570 -3.568378 0.000000 0.000000 0.000000 -0.289925 -25.125402 -2.253994 -9.499051 6.275092 0.034002 17.191793 11.573104 3.062143 -8.142337 21.635942 -2.268217 -2.689219 0.409948 -1.938263 0.000000 0.000000 0.000000 0.473525 -24.993711 -2.281950 -23.738536 -8.589127 -9.904217 14.503874 1.207801 -1.431620 2.336108 -2.423349 5.523699 -7.808323 0.413737 0.420366 0.000000 0.000000 0.000000 0.403708 -25.702857 -2.966186 2.809383 -1.160174 -2.768760 0.097432 -0.450824 -0.147779 1.260076 0.461276 0.325250 0.000000 0.000000 0.000000 1.047886 -0.051212 -0.537923 1.020947 -1.456297 2.958155 14.510539 14.099788 7.981908 0.000000 0.000000 0.000000 0.572772 0.073846 -0.391133 1.881494 -4.523790 -10.363905 -0.850042 -0.722597 -1.888872 -6.852622 -27.717111 -57.671734 0.732369 -20.413557 0.542233 0.000000 0.000000 0.000000 0.771764 0.019897 -0.522447 2.692675 -5.569507 18.580937 -0.971281 2.166915 -3.144621 4.501761 6.100972 67.621243 1.977861 22.593422 1.585574 0.000000 0.000000 0.000000 
8.258747 101.599686 -3.326424 0.000000 0.000000 0.000000 0.010408 -25.566735 -2.358497 -9.873344 6.410693 0.097383 17.283555 11.537162 3.134907 -8.021933 21.970328 -2.251769 -2.694271 0.427465 -1.897161 0.000000 0.000000 0.000000 0.764304 -25.407628 -2.386457 -23.656731 -8.417581 -9.697821 13.816819 0.964339 -1.567727 2.717760 -2.340876 5.624367 -7.697290 0.402523 0.464237 0.000000 0.000000 0.000000 0.708036 -26.130692 -3.056020 2.616027 -1.673996 -3.228126 0.021225 -0.551479 -0.237563 1.252635 0.467570 0.378386 0.000000 0.000000 0.000000 0.986003 -0.155713 -0.617985 0.986500 -1.548410 3.222498 14.820542 14.520393 8.661005 0.000000 0.000000 0.000000 0.534190 -0.013703 -0.461929 1.789063 -4.916871 -9.925545 -0.935654 -0.597522 -1.894783 -6.561503 -29.246832 -58.142737 0.773335 -22.352028 0.545940 0.000000 0.000000 0.000000 0.750525 -0.083339 -0.634961 2.776647 -6.202791 18.912977 -0.958430 2.006399 -3.097332 4.172161 6.815598 67.858797 2.006984 23.200961 1.620805 0.000000 0.000000 0.000000 
